<?xml version="1.0" encoding="iso-8859-1"?>
<!-- Uploaded to: SVG Repo, www.svgrepo.com, Generator: SVG Repo Mixer Tools -->
<svg fill="#000000" height="800px" width="800px" version="1.1" id="Layer_1" xmlns="http://www.w3.org/2000/svg" xmlns:xlink="http://www.w3.org/1999/xlink" 
	 viewBox="0 0 512 512" xml:space="preserve">
<g>
	<g>
		<path d="M507.08,110.494c4.474-4.725,6.042-11.501,4.099-17.711l-23.049-73.66c-2.962-9.466-13.038-14.737-22.504-11.777
			c-9.466,2.962-14.739,13.038-11.777,22.504l19.901,63.602l-42.746,45.142c-7.66,0-60.351,0-66.968,0
			c-11.067,0-21.863,3.876-30.4,10.914l-47.269,38.961l-55.257,15.969c12.587,5.166,20.906,17.491,20.654,31.422l48.145-13.914
			c2.355-0.681,4.545-1.836,6.436-3.395l49.187-40.54l0.009,305.911c0,11.904,9.649,21.551,21.551,21.551
			c11.903,0,21.551-9.649,21.551-21.551V311.654h9.309c0.003,3.357-2.526-9.504,37.348,176.778
			c2.498,11.67,13.985,19.052,25.586,16.564c11.639-2.491,19.055-13.946,16.564-25.585l-36.787-171.863V169.961
			C451.732,169.011,447.86,173.036,507.08,110.494z"/>
	</g>
</g>
<g>
	<g>
		<circle cx="403.298" cy="85.992" r="37.226"/>
	</g>
</g>
<g>
	<g>
		<path d="M59.523,372.878L27.307,477.994c-3.438,11.22,2.869,23.105,14.091,26.545c11.248,3.444,23.113-2.894,26.545-14.092
			l36.032-117.569H59.523z"/>
	</g>
</g>
<g>
	<g>
		<path d="M114.336,372.878V484.22c0,11.736,9.515,21.249,21.25,21.249s21.25-9.515,21.25-21.249V372.878H114.336z"/>
	</g>
</g>
<g>
	<g>
		<path d="M115.797,61.444c-20.269,0-36.701,16.432-36.701,36.701c0,20.344,16.52,36.702,36.701,36.702
			c20.196,0,36.701-16.372,36.701-36.702C152.498,77.875,136.066,61.444,115.797,61.444z"/>
	</g>
</g>
<g>
	<g>
		<path d="M235.077,233.745c-0.813-9.148-8.884-15.898-18.039-15.094l-57.305,5.089l-33.706-42.099l36.504,25.154l-7.254-39.642
			c-1.983-10.838-10.77-18.67-20.982-18.67c-13.152,0-22.401,0-37,0c-4.564,0-8.829,1.56-12.337,4.245
			c-11.924-11.494-4.903-4.727-31.416-30.285L32.655,47.592c-2.47-8.848-11.643-14.017-20.491-11.548
			C3.318,38.513-1.852,47.686,0.616,56.533l22.107,79.211c0.798,2.856,2.342,5.446,4.477,7.503
			c5.403,5.209,40.071,38.628,45.468,43.832L43.61,345.894c-1.116,6.101,3.226,11.758,8.922,11.758c27.641,0,98.91,0,126.532,0
			c5.72,0,10.037-5.661,8.922-11.758l-13.426-73.38c-23.806,2.114-17.54,1.557-26.229,2.33c-9.579,0.85-18.275-4.635-21.972-12.961
			l-26.294-59.455l39.277,49.06c3.446,4.305,8.848,6.668,14.454,6.172l66.187-5.878C229.132,250.971,235.89,242.895,235.077,233.745
			z"/>
	</g>
</g>
</svg>