<?xml version="1.0" encoding="utf-8"?><!-- Uploaded to: SVG Repo, www.svgrepo.com, Generator: SVG Repo Mixer Tools -->
<svg width="800px" height="800px" viewBox="0 0 400 400" fill="none" xmlns="http://www.w3.org/2000/svg">
<path d="M170.041 144.065C154.166 169.071 151.27 202.318 151.27 231.183C151.27 242.221 148.95 255.684 152.522 266.342" stroke="#000000" stroke-opacity="0.9" stroke-width="16" stroke-linecap="round" stroke-linejoin="round"/>
<path d="M155.732 265.041C188.837 258.89 220.21 245.433 251.992 235.122" stroke="#000000" stroke-opacity="0.9" stroke-width="16" stroke-linecap="round" stroke-linejoin="round"/>
<path d="M253.293 237.724C270.154 266.809 277.759 299.23 277.759 332.645C277.759 339.949 278.84 346.543 276.504 353.496" stroke="#000000" stroke-opacity="0.9" stroke-width="16" stroke-linecap="round" stroke-linejoin="round"/>
<path d="M276.708 354.797C282.284 350.516 288.914 352.808 294.919 352.808" stroke="#000000" stroke-opacity="0.9" stroke-width="16" stroke-linecap="round" stroke-linejoin="round"/>
<path d="M170.041 144.065C171.751 149.725 173.541 155.339 175.447 160.939C181.179 177.789 187.709 194.294 193.253 211.216C193.815 212.931 198.659 229.582 198.659 227.057" stroke="#000000" stroke-opacity="0.9" stroke-width="16" stroke-linecap="round" stroke-linejoin="round"/>
<path d="M201.26 227.317C219.423 232.931 238.401 232.513 257.195 232.513" stroke="#000000" stroke-opacity="0.9" stroke-width="16" stroke-linecap="round" stroke-linejoin="round"/>
<path d="M174.874 53.0695C223.239 7.37153 278.896 94.257 220.327 118.846C174.49 138.085 146.698 89.7832 174.874 61.3957" stroke="#000000" stroke-opacity="0.9" stroke-width="16" stroke-linecap="round" stroke-linejoin="round"/>
<path opacity="0.503384" d="M121.735 282.713C140.878 269.062 167.132 260.854 190.464 259.895C205.279 259.286 227.323 263.498 238.886 273.771C266.228 298.058 259.328 332.907 227.327 348.7C206.403 359.026 170.573 362.441 147.977 358.259C120.265 353.13 97.9885 330.289 107.052 301.214C109.004 294.952 111.379 289.234 116.112 284.563" stroke="#000000" stroke-opacity="0.9" stroke-width="14" stroke-linecap="round" stroke-linejoin="round"/>
</svg>