<?xml version="1.0" ?>
<!-- Uploaded to: SVG Repo, www.svgrepo.com, Generator: SVG Repo Mixer Tools -->
<svg width="800px" height="800px" viewBox="0 0 512 512" enable-background="new 0 0 512 512" id="flat" version="1.1" xml:space="preserve" xmlns="http://www.w3.org/2000/svg" xmlns:xlink="http://www.w3.org/1999/xlink">
<path d="M415.58,390.232l-21.831-8.733c-21.791-8.716-45.966-9.427-68.231-2.005L264,400v-88h144l23.012,63.282  C434.487,384.84,425.022,394.009,415.58,390.232z" fill="#BFBFBF"/>
<path d="M383.58,422.232l-21.831-8.733c-21.791-8.716-45.966-9.427-68.231-2.005L232,432v-88h144l23.012,63.282  C402.487,416.84,393.022,426.009,383.58,422.232z" fill="#CDCDCD"/>
<path d="M435.655,280l-86.92,13.742L320,112l20.626,48.543C360.891,208.238,393.738,249.528,435.655,280L435.655,280  z" fill="#AAAAAA"/>
<path d="M435.655,320l-86.92,13.742L320,152l20.626,48.543C360.891,248.238,393.738,289.529,435.655,320L435.655,320  z" fill="#CDCDCD"/>
<path d="M96.42,390.232l21.831-8.733c21.791-8.716,45.966-9.427,68.231-2.005L248,400v-88H104l-23.012,63.282  C77.513,384.84,86.978,394.009,96.42,390.232z" fill="#BFBFBF"/>
<path d="M124.955,437.221l18.011-15.116c17.977-15.088,40.721-23.315,64.19-23.22L272,399.146l-27.491-83.596  l-94.902,31.21c-25.149,8.271-42.438,31.391-43.26,57.853l-0.721,23.227C105.31,438.005,117.165,443.758,124.955,437.221z" fill="#CDCDCD"/>
<path d="M76.345,280l86.92,13.742L192,112l-20.626,48.543C151.109,208.238,118.262,249.528,76.345,280L76.345,280z" fill="#AAAAAA"/>
<path d="M76.345,320l86.92,13.742L192,152l-20.626,48.543C151.109,248.238,118.262,289.529,76.345,320L76.345,320z" fill="#CDCDCD"/>
<g>
<path d="M359.72,360c15.582,0,26.336-15.605,20.789-30.166l-18.086-47.475   c-22.655-59.469-31.559-123.292-26.046-186.69v0C340.476,48.531,303.316,8,256,8l0,0c-47.316,0-84.476,40.531-80.376,87.669v0   c5.513,63.398-3.392,127.222-26.046,186.69l-15.694,41.195C127.182,341.147,140.175,360,159,360h0   c6.724,0,13.204,2.521,18.161,7.064l12.758,11.695C224.618,410.566,235.118,460.985,216,504l42.076-67.322   c17.887-28.619,41.223-53.273,68.544-72.648c3.728-2.644,8.204-4.029,12.775-4.029H359.72z" fill="#E2E2E2"/>
</g>
<path d="M328,160l42.494-26.559c13.743-8.589,30.387-11.221,46.109-7.29l21.76,5.44  C448.729,134.182,456,143.495,456,154.179v0c0,15.148-14.235,26.262-28.93,22.588l0,0c-21.557-5.389-44.323,1.643-59.085,18.251  L328,240" fill="#E2E2E2"/>
<path d="M184,160l-42.494-26.559c-13.743-8.589-30.387-11.221-46.109-7.29l-21.76,5.44  C63.271,134.182,56,143.495,56,154.179v0c0,15.148,14.235,26.262,28.93,22.588l0,0c21.557-5.389,44.323,1.643,59.085,18.251L184,240  " fill="#E2E2E2"/>
<path d="M240,80l-32-16l-4.554,8.538c-8.956,16.792,13.328,32.623,26.236,18.639L240,80z" fill="#4D5166"/>
<path d="M272,80l32-16l4.554,8.538c8.956,16.792-13.328,32.623-26.236,18.639L272,80z" fill="#4D5166"/>
<path d="M271.722,168h-31.445c-9.566,0-17.905-6.511-20.225-15.792L216,136h80l-4.052,16.208  C289.628,161.489,281.289,168,271.722,168z" fill="#E65C64"/>
<path d="M232,136v8c0,4.418,3.582,8,8,8s8-3.582,8-8v-8H232z" fill="#2E303D"/>
<path d="M264,136v8c0,4.418,3.582,8,8,8s8-3.582,8-8v-8H264z" fill="#2E303D"/>
<g>
<path d="M168,352c-2.048,0-4.095-0.781-5.657-2.343c-3.124-3.125-3.124-8.189,0-11.314   c18.519-18.518,39.48-78.928,45.994-100.642c1.271-4.231,5.729-6.631,9.962-5.364c4.231,1.271,6.634,5.729,5.364,9.962   c-1.004,3.346-24.869,82.221-50.006,107.358C172.095,351.219,170.048,352,168,352z" fill="#4D5166"/>
</g>
<g>
<path d="M335.994,312c-1.702,0-3.418-0.541-4.872-1.659c-25.473-19.595-49.562-80.837-50.575-83.434   c-1.605-4.116,0.43-8.754,4.546-10.359c4.115-1.608,8.753,0.43,10.36,4.544c6.458,16.546,27.208,62.554,45.425,76.567   c3.502,2.693,4.157,7.717,1.463,11.219C340.766,310.926,338.393,312,335.994,312z" fill="#4D5166"/>
</g>
<g>
<path d="M311.992,352.001c-1.356,0-2.73-0.345-3.99-1.071c-17.517-10.105-33.352-39.877-35.1-43.239   c-2.038-3.92-0.513-8.75,3.407-10.788s8.75-0.514,10.788,3.407c4.164,7.991,17.47,30.167,28.9,36.761   c3.827,2.208,5.14,7.101,2.932,10.928C317.448,350.565,314.758,352.001,311.992,352.001z" fill="#4D5166"/>
</g>
<g>
<path d="M210.964,368c-2.163,0-4.318-0.872-5.896-2.591c-2.987-3.255-2.77-8.316,0.485-11.304   c16.108-14.782,30.536-57.504,34.735-72.718c1.177-4.26,5.582-6.757,9.841-5.583c4.259,1.176,6.759,5.582,5.583,9.841   c-0.667,2.414-16.584,59.364-39.341,80.249C214.835,367.304,212.896,368,210.964,368z" fill="#4D5166"/>
</g>
</svg>